HIERARCHY
ROOT Hips
{
	OFFSET 0.000000 71.427986 0.000000
	CHANNELS 6 Xposition Yposition Zposition Xrotation Yrotation Zrotation
	JOINT Pelvis
	{
		OFFSET 0.000000 0.000000 0.000000
		CHANNELS 3 Xrotation Yrotation Zrotation
		JOINT LeftUpLeg
		{
			OFFSET 6.797100 -2.508499 -1.318700
			CHANNELS 3 Xrotation Yrotation Zrotation
			JOINT LeftLeg
			{
				OFFSET 0.069008 -29.241863 0.690200
				CHANNELS 3 Xrotation Yrotation Zrotation
				JOINT LeftFoot
				{
					OFFSET -0.069008 -29.568123 -0.266800
					CHANNELS 3 Xrotation Yrotation Zrotation
					JOINT LeftToeBase
					{
						OFFSET 3.145500 -8.631000 16.059900
						CHANNELS 3 Xrotation Yrotation Zrotation
						End Site
						{
							OFFSET 0.000000 18.501587 0.000000
						}
					}
				}
			}
			JOINT Left_ShortSleeve
			{
				OFFSET 0.265923 -10.480953 1.153800
				CHANNELS 3 Xrotation Yrotation Zrotation
				End Site
				{
					OFFSET 1.725763 19.823879 0.000000
				}
			}
		}
		JOINT RightUpLeg
		{
			OFFSET -6.797100 -2.508499 -1.318700
			CHANNELS 3 Xrotation Yrotation Zrotation
			JOINT RightLeg
			{
				OFFSET -0.082453 -29.241932 0.688000
				CHANNELS 3 Xrotation Yrotation Zrotation
				JOINT RightFoot
				{
					OFFSET 0.082453 -29.568058 -0.264600
					CHANNELS 3 Xrotation Yrotation Zrotation
					JOINT RightToeBase
					{
						OFFSET -3.115300 -8.682800 16.113400
						CHANNELS 3 Xrotation Yrotation Zrotation
						End Site
						{
							OFFSET 0.000000 18.567114 0.000000
						}
					}
				}
			}
			JOINT Right_ShortSleeve
			{
				OFFSET -0.265923 -10.480953 1.153800
				CHANNELS 3 Xrotation Yrotation Zrotation
				End Site
				{
					OFFSET -1.725766 19.823910 0.000000
				}
			}
		}
	}
	JOINT Spine
	{
		OFFSET 0.000000 13.368103 0.470500
		CHANNELS 3 Xrotation Yrotation Zrotation
		JOINT Spine1
		{
			OFFSET 0.147000 13.837402 0.538800
			CHANNELS 3 Xrotation Yrotation Zrotation
			JOINT Spine2
			{
				OFFSET 0.168000 16.242897 -1.435500
				CHANNELS 3 Xrotation Yrotation Zrotation
				JOINT Neck
				{
					OFFSET 0.217200 18.631500 -1.679100
					CHANNELS 3 Xrotation Yrotation Zrotation
					JOINT Head
					{
						OFFSET 0.000000 6.599396 1.385900
						CHANNELS 3 Xrotation Yrotation Zrotation
						JOINT Hat
						{
							OFFSET -0.532200 27.220596 -10.096100
							CHANNELS 3 Xrotation Yrotation Zrotation
							End Site
							{
								OFFSET 0.000000 22.029861 0.000000
							}
						}
						JOINT HairD
						{
							OFFSET -10.777400 17.437393 -1.325900
							CHANNELS 3 Xrotation Yrotation Zrotation
							JOINT HairD1
							{
								OFFSET -3.290299 -11.051193 1.062200
								CHANNELS 3 Xrotation Yrotation Zrotation
								End Site
								{
									OFFSET 0.000000 11.579437 0.000000
								}
							}
						}
						JOINT HairB
						{
							OFFSET -10.777400 17.437393 1.467900
							CHANNELS 3 Xrotation Yrotation Zrotation
							JOINT HairB1
							{
								OFFSET -1.561200 -12.956299 3.590200
								CHANNELS 3 Xrotation Yrotation Zrotation
								End Site
								{
									OFFSET 0.000000 13.534866 0.000000
								}
							}
						}
						JOINT HairA
						{
							OFFSET 9.713100 17.437393 1.467900
							CHANNELS 3 Xrotation Yrotation Zrotation
							JOINT HairA1
							{
								OFFSET 1.561200 -12.956299 3.590200
								CHANNELS 3 Xrotation Yrotation Zrotation
								End Site
								{
									OFFSET 0.000000 13.534866 0.000000
								}
							}
						}
						JOINT HairC
						{
							OFFSET 9.713100 17.437393 -1.325900
							CHANNELS 3 Xrotation Yrotation Zrotation
							JOINT HairC1
							{
								OFFSET 3.290300 -11.051193 1.062200
								CHANNELS 3 Xrotation Yrotation Zrotation
								End Site
								{
									OFFSET 0.000000 11.579437 0.000000
								}
							}
						}
					}
				}
				JOINT LeftShoulder
				{
					OFFSET 5.101800 15.108002 -2.763700
					CHANNELS 3 Xrotation Yrotation Zrotation
					JOINT LeftArm
					{
						OFFSET 9.825497 2.506317 -1.597400
						CHANNELS 3 Xrotation Yrotation Zrotation
						JOINT LeftForeArm
						{
							OFFSET 21.966244 0.000000 0.000000
							CHANNELS 3 Xrotation Yrotation Zrotation
							JOINT LeftHand
							{
								OFFSET 33.879036 0.000000 0.000000
								CHANNELS 3 Xrotation Yrotation Zrotation
								JOINT LeftHandThumb1
								{
									OFFSET 6.715286 -2.359680 3.363841
									CHANNELS 3 Xrotation Yrotation Zrotation
									JOINT LeftHandThumb2
									{
										OFFSET 2.507072 -1.447464 1.447461
										CHANNELS 3 Xrotation Yrotation Zrotation
										JOINT LeftHandThumb3
										{
											OFFSET 2.898338 -1.673355 1.673357
											CHANNELS 3 Xrotation Yrotation Zrotation
											End Site
											{
												OFFSET -0.295959 3.727692 -0.131651
											}
										}
									}
								}
								JOINT LeftHandIndex1
								{
									OFFSET 14.190811 -0.254547 3.840278
									CHANNELS 3 Xrotation Yrotation Zrotation
									JOINT LeftHandIndex2
									{
										OFFSET 3.551727 0.000000 -0.000000
										CHANNELS 3 Xrotation Yrotation Zrotation
										JOINT LeftHandIndex3
										{
											OFFSET 2.894196 0.000000 0.000000
											CHANNELS 3 Xrotation Yrotation Zrotation
											End Site
											{
												OFFSET -1.000603 2.690872 0.366626
											}
										}
									}
								}
								JOINT LeftHandMiddle1
								{
									OFFSET 13.776489 0.000000 0.000000
									CHANNELS 3 Xrotation Yrotation Zrotation
									JOINT LeftHandMiddle2
									{
										OFFSET 3.438232 0.000000 0.000000
										CHANNELS 3 Xrotation Yrotation Zrotation
										JOINT LeftHandMiddle3
										{
											OFFSET 3.691551 0.000000 0.000000
											CHANNELS 3 Xrotation Yrotation Zrotation
											End Site
											{
												OFFSET -1.082298 3.499527 0.457670
											}
										}
									}
								}
								JOINT LeftHandRing1
								{
									OFFSET 13.966164 -0.268127 -3.067488
									CHANNELS 3 Xrotation Yrotation Zrotation
									JOINT LeftHandRing2
									{
										OFFSET 3.162567 0.000000 0.000000
										CHANNELS 3 Xrotation Yrotation Zrotation
										JOINT LeftHandRing3
										{
											OFFSET 3.324348 0.000000 0.000000
											CHANNELS 3 Xrotation Yrotation Zrotation
											End Site
											{
												OFFSET -0.861900 3.184998 0.405154
											}
										}
									}
								}
								JOINT LeftHandPinky1
								{
									OFFSET 13.131393 -0.168503 -5.746925
									CHANNELS 3 Xrotation Yrotation Zrotation
									JOINT LeftHandPinky2
									{
										OFFSET 2.849182 0.000000 0.000000
										CHANNELS 3 Xrotation Yrotation Zrotation
										JOINT LeftHandPinky3
										{
											OFFSET 2.805038 0.000000 0.000000
											CHANNELS 3 Xrotation Yrotation Zrotation
											End Site
											{
												OFFSET -0.882500 2.642609 0.325652
											}
										}
									}
								}
							}
							JOINT Left_Sleeve
							{
								OFFSET 6.592125 -0.646545 0.805568
								CHANNELS 3 Xrotation Yrotation Zrotation
								End Site
								{
									OFFSET -0.000179 20.275787 -0.000000
								}
							}
						}
					}
				}
				JOINT RightShoulder
				{
					OFFSET -5.731700 15.108002 -2.763700
					CHANNELS 3 Xrotation Yrotation Zrotation
					JOINT RightArm
					{
						OFFSET -9.825497 2.506317 -1.597400
						CHANNELS 3 Xrotation Yrotation Zrotation
						JOINT RightForeArm
						{
							OFFSET -21.966242 0.000000 0.000000
							CHANNELS 3 Xrotation Yrotation Zrotation
							JOINT RightHand
							{
								OFFSET -33.879032 0.000000 0.000000
								CHANNELS 3 Xrotation Yrotation Zrotation
								JOINT RightHandThumb1
								{
									OFFSET -6.715286 -2.359680 3.363841
									CHANNELS 3 Xrotation Yrotation Zrotation
									JOINT RightHandThumb2
									{
										OFFSET -2.507072 -1.447464 1.447461
										CHANNELS 3 Xrotation Yrotation Zrotation
										JOINT RightHandThumb3
										{
											OFFSET -2.898338 -1.673355 1.673357
											CHANNELS 3 Xrotation Yrotation Zrotation
											End Site
											{
												OFFSET 0.295959 3.727692 -0.131651
											}
										}
									}
								}
								JOINT RightHandIndex1
								{
									OFFSET -14.190811 -0.254547 3.840278
									CHANNELS 3 Xrotation Yrotation Zrotation
									JOINT RightHandIndex2
									{
										OFFSET -3.551727 0.000000 -0.000000
										CHANNELS 3 Xrotation Yrotation Zrotation
										JOINT RightHandIndex3
										{
											OFFSET -2.894196 0.000000 0.000000
											CHANNELS 3 Xrotation Yrotation Zrotation
											End Site
											{
												OFFSET 1.000603 2.690872 0.366626
											}
										}
									}
								}
								JOINT RightHandMiddle1
								{
									OFFSET -13.776489 0.000000 0.000000
									CHANNELS 3 Xrotation Yrotation Zrotation
									JOINT RightHandMiddle2
									{
										OFFSET -3.438232 0.000000 0.000000
										CHANNELS 3 Xrotation Yrotation Zrotation
										JOINT RightHandMiddle3
										{
											OFFSET -3.691551 0.000000 0.000000
											CHANNELS 3 Xrotation Yrotation Zrotation
											End Site
											{
												OFFSET 1.082298 3.499527 0.457670
											}
										}
									}
								}
								JOINT RightHandRing1
								{
									OFFSET -13.966164 -0.268127 -3.067488
									CHANNELS 3 Xrotation Yrotation Zrotation
									JOINT RightHandRing2
									{
										OFFSET -3.162567 0.000000 0.000000
										CHANNELS 3 Xrotation Yrotation Zrotation
										JOINT RightHandRing3
										{
											OFFSET -3.324348 0.000000 0.000000
											CHANNELS 3 Xrotation Yrotation Zrotation
											End Site
											{
												OFFSET 0.861900 3.184998 0.405154
											}
										}
									}
								}
								JOINT RightHandPinky1
								{
									OFFSET -13.131393 -0.168503 -5.746925
									CHANNELS 3 Xrotation Yrotation Zrotation
									JOINT RightHandPinky2
									{
										OFFSET -2.849182 0.000000 0.000000
										CHANNELS 3 Xrotation Yrotation Zrotation
										JOINT RightHandPinky3
										{
											OFFSET -2.805038 0.000000 0.000000
											CHANNELS 3 Xrotation Yrotation Zrotation
											End Site
											{
												OFFSET 0.882500 2.642609 0.325652
											}
										}
									}
								}
							}
							JOINT Right_Sleeve
							{
								OFFSET -6.592125 -0.646545 0.805568
								CHANNELS 3 Xrotation Yrotation Zrotation
								End Site
								{
									OFFSET 0.000179 20.275787 -0.000000
								}
							}
						}
					}
				}
				JOINT Bind_Right_JacketString
				{
					OFFSET -3.534800 11.969597 7.200700
					CHANNELS 3 Xrotation Yrotation Zrotation
					JOINT Bind_Right_JacketString1
					{
						OFFSET -0.319900 -6.102600 2.794100
						CHANNELS 3 Xrotation Yrotation Zrotation
						End Site
						{
							OFFSET 0.000000 6.719452 0.000000
						}
					}
				}
				JOINT Bind_Left_JacketString
				{
					OFFSET 2.904800 11.969597 7.200700
					CHANNELS 3 Xrotation Yrotation Zrotation
					JOINT Bind_Left_JacketString1
					{
						OFFSET 0.364800 -5.904503 3.186800
						CHANNELS 3 Xrotation Yrotation Zrotation
						End Site
						{
							OFFSET 0.000000 6.719513 0.000000
						}
					}
				}
				JOINT HairE
				{
					OFFSET 5.915200 17.612701 -11.592200
					CHANNELS 3 Xrotation Yrotation Zrotation
					JOINT HairE1
					{
						OFFSET 0.289200 -7.171898 -1.284500
						CHANNELS 3 Xrotation Yrotation Zrotation
						End Site
						{
							OFFSET 0.000000 7.291756 0.000000
						}
					}
				}
				JOINT HairF
				{
					OFFSET -0.864800 17.612701 -11.592200
					CHANNELS 3 Xrotation Yrotation Zrotation
					JOINT HairF1
					{
						OFFSET 0.000000 -14.087097 -2.127501
						CHANNELS 3 Xrotation Yrotation Zrotation
						End Site
						{
							OFFSET 0.000000 14.246841 0.000000
						}
					}
				}
				JOINT HairG
				{
					OFFSET -8.087700 17.612701 -11.592200
					CHANNELS 3 Xrotation Yrotation Zrotation
					JOINT HairG1
					{
						OFFSET -0.293600 -6.081398 -0.910100
						CHANNELS 3 Xrotation Yrotation Zrotation
						End Site
						{
							OFFSET 0.000000 6.156120 0.000000
						}
					}
				}
			}
		}
	}
	JOINT Pouch
	{
		OFFSET 0.000000 4.394501 10.847300
		CHANNELS 3 Xrotation Yrotation Zrotation
		End Site
		{
			OFFSET 0.000000 21.880577 0.000000
		}
	}
	JOINT Bag
	{
		OFFSET -13.229000 4.813004 -0.593300
		CHANNELS 3 Xrotation Yrotation Zrotation
		End Site
		{
			OFFSET 0.000000 21.880577 0.000000
		}
	}
	JOINT OccupyGuyFacialAnim_Joint
	{
		OFFSET 1.000000 -70.206398 -1.655000
		CHANNELS 3 Xrotation Yrotation Zrotation
		End Site
		{
			OFFSET 0.000000 21.880577 0.000000
		}
	}
}
MOTION
Frames: 4
Frame Time: 0.033333
-0.184246 53.887459 -0.729614 -2.380225 -1.639584 -0.889517 -0.000000 0.000000 -0.000000 -61.830527 -2.003276 6.861564 56.431771 5.434910 2.695714 8.172043 -0.079776 -5.847341 -0.000000 0.000001 0.000000 0.000004 -0.000001 -0.000000 -61.980067 -0.393201 -2.768353 55.580002 -10.195680 -1.370632 8.768038 -12.135859 1.357239 0.000000 0.000000 0.000000 -0.000001 -0.000000 -0.000000 5.529089 -1.587960 0.505207 2.111809 -0.576004 -0.022906 2.110084 -0.583006 -0.024451 3.856420 0.204298 -0.320507 -12.881194 0.668580 0.212935 0.000000 0.000000 -0.000000 0.000000 0.000000 -0.000000 0.000000 0.000000 -0.000000 0.000000 0.000000 -0.000000 0.000000 0.000000 -0.000000 0.000000 0.000000 -0.000000 0.000000 0.000000 -0.000000 0.000000 0.000000 -0.000000 0.000000 0.000000 -0.000000 0.574412 -4.311465 -11.553639 -9.379712 -23.214829 -69.017347 0.000039 -45.903089 0.000038 54.282385 -8.659725 38.608778 -1.540045 3.690186 6.142356 4.987833 21.147837 1.693429 -0.000004 -0.000001 0.000001 -0.018314 -0.748172 -1.325736 0.553078 2.708431 -23.078816 -0.000001 0.000002 0.000000 -0.135840 11.389200 1.393652 0.104250 1.196045 -9.962551 0.000002 0.000000 0.000002 -1.294551 10.572121 7.460397 0.260644 1.880126 -15.783821 -0.000002 -0.000001 -0.000000 -1.690020 13.282422 7.978296 0.124249 -2.719589 -11.642811 0.000001 0.000000 0.000001 0.000003 0.000003 -0.000001 0.493574 5.217214 15.821944 -7.725249 34.220409 60.440870 0.000015 46.300408 -0.000017 38.174983 -2.397638 -33.876096 -2.292604 -7.364868 -14.491971 5.259781 -15.532407 -0.703544 0.000001 -0.000004 0.000000 -0.041490 11.515026 0.910615 0.361659 -2.217358 18.525030 -0.000000 -0.000001 0.000000 0.017688 4.405250 0.034805 0.361661 -2.217356 18.525032 0.000002 -0.000002 -0.000001 -0.072288 -5.074325 -1.123689 0.361653 -2.217358 18.525022 -0.000000 -0.000001 -0.000001 -0.228426 -10.997326 -1.868262 0.361669 -2.217380 18.525023 -0.000000 0.000001 0.000001 0.000001 -0.000000 -0.000002 -0.000000 0.000000 -0.000000 0.000000 -0.000000 0.000000 -0.000000 0.000000 -0.000000 -0.000000 0.000000 -0.000000 -0.000000 0.000000 -0.000000 0.000000 -0.000000 0.000000 -0.000000 0.000000 -0.000000 -0.000000 0.000000 -0.000000 -0.000000 0.000000 -0.000000 0.000000 -0.000000 0.000000 -0.000000 0.000000 -0.000000 -0.000000 0.000000 -0.000000 -0.000000 0.000000 -0.000000 
-0.184829 53.885323 -0.731909 -2.363965 -1.629650 -0.913980 0.000000 0.000000 -0.000000 -61.856317 -2.025938 6.861331 56.435606 5.429675 2.708696 8.176116 -0.079998 -5.854540 -0.000000 -0.000000 -0.000000 0.000000 0.000000 -0.000000 -61.991425 -0.405297 -2.760960 55.572065 -10.194137 -1.360843 8.775981 -12.154307 1.358715 0.000000 -0.000000 -0.000000 0.000003 0.000000 -0.000000 5.511766 -1.595094 0.498770 2.109146 -0.578463 -0.025813 2.107406 -0.585473 -0.027396 3.822693 0.202002 -0.311329 -12.911814 0.661175 0.222168 0.000000 -0.000000 -0.000000 0.000000 -0.000000 -0.000000 0.000000 -0.000000 -0.000000 0.000000 -0.000000 -0.000000 0.000000 -0.000000 -0.000000 0.000000 -0.000000 -0.000000 0.000000 -0.000000 -0.000000 0.000000 -0.000000 -0.000000 0.000000 -0.000000 -0.000000 0.574407 -4.311594 -11.554577 -9.328263 -23.224598 -68.982520 0.000007 -45.969704 -0.000003 54.279469 -8.611005 38.560786 -1.540041 3.690185 6.142357 4.987837 21.147816 1.693422 -0.000001 -0.000002 -0.000001 -0.018313 -0.748172 -1.325738 0.553079 2.708431 -23.078815 -0.000000 0.000001 -0.000002 -0.135836 11.389200 1.393652 0.104251 1.196045 -9.962554 -0.000000 0.000000 -0.000001 -1.294551 10.572119 7.460400 0.260640 1.880126 -15.783818 -0.000000 0.000001 -0.000002 -1.690017 13.282421 7.978297 0.124250 -2.719588 -11.642812 -0.000001 0.000000 0.000001 0.000000 -0.000001 0.000001 0.494844 5.203408 15.787412 -7.676593 34.359263 60.387273 -0.000019 46.207927 0.000038 38.190607 -2.411186 -33.773824 -2.292606 -7.364869 -14.491971 5.259784 -15.532405 -0.703548 0.000001 0.000000 0.000002 -0.041499 11.515042 0.910630 0.361654 -2.217344 18.525032 -0.000000 -0.000000 0.000000 0.017683 4.405250 0.034812 0.361666 -2.217371 18.525030 0.000001 -0.000001 0.000001 -0.072285 -5.074306 -1.123677 0.361665 -2.217355 18.525034 -0.000002 0.000000 -0.000001 -0.228436 -10.997352 -1.868263 0.361662 -2.217370 18.525030 0.000001 -0.000001 0.000002 0.000003 0.000001 0.000000 -0.000000 -0.000000 0.000000 0.000001 0.000000 0.000000 -0.000000 -0.000000 0.000000 -0.000000 -0.000000 0.000000 -0.000000 -0.000000 0.000000 0.000001 0.000000 0.000000 -0.000000 -0.000000 0.000000 -0.000000 -0.000000 0.000000 -0.000000 -0.000000 0.000000 0.000001 0.000000 0.000000 0.000000 0.000000 -0.000000 0.000000 0.000000 -0.000000 0.000000 0.000000 -0.000000 
-0.184534 53.884270 -0.732529 -2.319344 -1.613961 -0.935655 0.000000 0.000000 0.000000 -61.905618 -2.052878 6.852955 56.432765 5.426193 2.720024 8.182675 -0.080411 -5.862150 -0.000000 -0.000000 -0.000000 0.000001 -0.000000 -0.000001 -62.028739 -0.416191 -2.761602 55.564347 -10.193474 -1.349143 8.780211 -12.166358 1.361140 -0.000000 0.000000 0.000000 -0.000000 0.000000 -0.000000 5.514063 -1.595337 0.492302 2.112282 -0.578577 -0.029277 2.110538 -0.585633 -0.030882 3.796020 0.206816 -0.317246 -12.956479 0.671956 0.242341 -0.000000 -0.000000 0.000000 -0.000000 -0.000000 0.000000 -0.000000 -0.000000 0.000000 -0.000000 -0.000000 0.000000 -0.000000 -0.000000 0.000000 -0.000000 -0.000000 0.000000 -0.000000 -0.000000 0.000000 -0.000000 -0.000000 0.000000 -0.000000 -0.000000 0.000000 0.574476 -4.308894 -11.550427 -9.265450 -23.248091 -68.939046 0.000013 -46.119920 0.000010 54.249833 -8.564452 38.490770 -1.540045 3.690187 6.142356 4.987837 21.147830 1.693430 -0.000000 -0.000000 0.000000 -0.018317 -0.748170 -1.325736 0.553077 2.708430 -23.078813 0.000002 0.000001 0.000002 -0.135840 11.389200 1.393653 0.104251 1.196044 -9.962551 0.000002 0.000000 0.000002 -1.294551 10.572119 7.460401 0.260641 1.880127 -15.783818 -0.000002 -0.000000 -0.000000 -1.690016 13.282420 7.978296 0.124245 -2.719590 -11.642810 0.000000 -0.000001 0.000001 0.000001 0.000001 -0.000001 0.496337 5.188849 15.739944 -7.490449 34.604990 60.186582 0.000009 46.283281 -0.000004 37.883610 -2.367725 -33.690622 -2.292600 -7.364868 -14.491976 5.259780 -15.532409 -0.703543 0.000005 0.000003 0.000004 -0.041496 11.515060 0.910633 0.361663 -2.217372 18.525032 0.000003 0.000000 -0.000001 0.017694 4.405241 0.034807 0.361658 -2.217351 18.525030 0.000004 -0.000001 0.000003 -0.072287 -5.074322 -1.123689 0.361665 -2.217368 18.525030 -0.000002 -0.000001 0.000002 -0.228430 -10.997335 -1.868257 0.361670 -2.217376 18.525013 0.000001 0.000000 -0.000001 -0.000003 -0.000002 -0.000001 -0.000000 -0.000000 0.000000 -0.000000 -0.000000 -0.000000 -0.000000 -0.000000 -0.000000 -0.000000 -0.000000 -0.000000 -0.000000 -0.000000 0.000000 -0.000000 -0.000000 -0.000000 -0.000000 -0.000000 -0.000000 -0.000000 -0.000000 -0.000000 -0.000000 -0.000000 0.000000 -0.000000 -0.000000 -0.000000 0.000000 0.000000 0.000000 0.000000 0.000000 0.000000 0.000000 0.000000 0.000000 
-0.182225 53.884819 -0.731703 -2.249079 -1.593596 -0.957441 0.000000 0.000000 -0.000000 -61.975702 -2.087057 6.835822 56.423622 5.424424 2.731922 8.191136 -0.080891 -5.872084 -0.000000 0.000001 0.000000 0.000003 -0.000000 -0.000000 -62.086324 -0.425900 -2.766660 55.551312 -10.193059 -1.336829 8.785184 -12.179528 1.366920 -0.000000 -0.000000 -0.000000 0.000000 -0.000000 -0.000000 5.532861 -1.586074 0.484833 2.120730 -0.575369 -0.033722 2.118971 -0.582511 -0.035332 3.764584 0.216311 -0.334895 -13.043605 0.687822 0.281872 -0.000000 -0.000000 -0.000000 -0.000000 -0.000000 -0.000000 -0.000000 -0.000000 -0.000000 -0.000000 -0.000000 -0.000000 -0.000000 -0.000000 -0.000000 -0.000000 -0.000000 -0.000000 -0.000000 -0.000000 -0.000000 -0.000000 -0.000000 -0.000000 -0.000000 -0.000000 -0.000000 0.574629 -4.303752 -11.541876 -9.201344 -23.290569 -68.896992 0.000013 -46.333336 0.000014 54.206956 -8.490177 38.420299 -1.540043 3.690186 6.142357 4.987836 21.147850 1.693425 -0.000000 -0.000000 -0.000001 -0.018315 -0.748171 -1.325740 0.553077 2.708430 -23.078813 0.000000 0.000001 -0.000002 -0.135838 11.389200 1.393652 0.104251 1.196045 -9.962557 0.000000 0.000001 0.000001 -1.294553 10.572118 7.460400 0.260642 1.880127 -15.783821 0.000001 0.000001 -0.000001 -1.690015 13.282421 7.978300 0.124246 -2.719589 -11.642814 0.000000 -0.000001 -0.000001 0.000003 0.000003 -0.000002 0.498144 5.172977 15.676234 -7.144374 35.009876 59.800963 -0.000027 46.568377 0.000054 36.954465 -2.301010 -33.763575 -2.292605 -7.364870 -14.491973 5.259784 -15.532405 -0.703544 -0.000000 -0.000001 0.000000 -0.041493 11.515046 0.910629 0.361657 -2.217342 18.525032 -0.000000 -0.000001 0.000002 0.017685 4.405239 0.034809 0.361670 -2.217357 18.525027 0.000000 0.000000 0.000003 -0.072293 -5.074308 -1.123685 0.361666 -2.217371 18.525025 -0.000003 -0.000001 0.000001 -0.228427 -10.997347 -1.868267 0.361656 -2.217334 18.525037 -0.000001 0.000000 -0.000001 0.000002 0.000000 0.000000 0.000000 -0.000000 -0.000000 0.000000 -0.000001 -0.000000 0.000000 -0.000000 -0.000000 0.000000 -0.000000 -0.000000 0.000000 -0.000000 -0.000000 0.000000 -0.000001 -0.000000 0.000000 -0.000000 -0.000000 0.000000 -0.000000 -0.000000 0.000000 -0.000000 -0.000000 0.000000 -0.000001 -0.000000 0.000000 0.000000 -0.000000 0.000000 0.000000 -0.000000 0.000000 0.000000 -0.000000 
